<svg xmlns="http://www.w3.org/2000/svg" viewBox="0 0 120 120" width="120" height="120">
  <rect x="6" y="6" width="108" height="108" rx="12" fill="#b83227"/>
  <rect x="15" y="15" width="90" height="90" rx="7" fill="none" stroke="#f2f0e8" stroke-width="2.5" opacity="0.9"/>
  <path d="M33.21174254116595 15.026332468583057Q35.07542293255818 14.13176588071478 39.100972577965415 14.13176588071478Q41.03920018501334 14.42995474333754 45.43748590869902 14.42995474333754L75.48001381794185 14.280860312026164Q79.13282738507063 15.026332468583057 76.89641091539994 17.635485016532186Q75.25637217097477 19.946448701858557 72.49812519171427 19.946448701858557Q59.452362451968625 18.08276831046632 41.63557791025885 19.79735427054718Q38.65368928403127 20.170090348825624 35.6718006578037 21.0646569366939Q31.795345443707852 22.555601249807687 30.378948346249754 19.35007097661304Q29.857117836659928 16.890012859975293 33.21174254116595 15.026332468583057ZM38.131858774441454 23.450167837675956Q39.54825587189955 20.99010972103821 41.93376677288161 22.40650681849631Q43.05197500771695 23.22652619070889 45.288391477387634 23.151978975053204Q52.44492418033382 23.822903915954406 62.58334550950757 23.67380948464303Q65.41613970442378 23.822903915954406 67.05617844884894 24.64292328816699Q69.66533099679808 26.28296203259216 68.69621719327411 28.89211458054129Q67.95074503671722 31.575814344146103 67.87619782106152 34.855891832996434L67.20527288016032 40.819669085451594Q66.98163123319326 43.503368849056415 65.34159248876809 45.29250202479295Q64.14883703827705 46.336163043972604 62.359703862540506 45.88887975003847Q55.65045445352846 44.770671515203134 45.43748590869902 46.410710259628296Q43.648352732962465 46.63435190659536 43.49925830165109 48.87076837626604L42.679238929438505 57.44369817667033Q42.381050066815746 59.30737856806256 44.915655399109184 59.232831352406876Q50.73033822025296 58.487359195849976 56.54502104139674 57.96552868626016Q59.22872080500155 58.487359195849976 58.40870143278897 60.798322881176354Q57.06685155098656 62.811097703879966 54.90498229697157 63.109286566502725Q52.519471395989505 63.85475872305962 48.941205044516416 64.30204201699375Q41.63557791025885 65.19660860486202 37.01365053960611 67.88030836846684Q34.03176191337853 70.86219699469441 31.04987328715096 69.37125268158063Q29.111645680103035 67.88030836846684 30.7516844245282 64.89841974223927Q34.10630912903422 62.36381440994583 36.26817838304922 59.53102021502963Q37.833669911818696 56.69822602011344 38.20640599009714 53.56724296257448Q39.99553916583369 40.37238579151746 37.98276434313007 25.686584307346642Q37.98276434313007 23.97199834726578 38.131858774441454 23.450167837675956ZM54.159510140414675 27.773906345705946Q50.35760214197451 27.848453561361637 46.55569414353435 28.444831286607148Q44.76656096779781 28.668472933574215 44.54291932083074 30.159417246688008Q44.393824889519365 31.724908775457486 46.630241359190045 31.87400320676886Q53.56313241516916 32.02309763808024 60.719665118115344 31.79945599111317Q62.50879829385189 31.650361559801794 62.50879829385189 30.681247756277834Q62.88153437213033 29.264850658819732 61.46513727467224 28.51937850226284Q58.706890295411725 27.55026469873888 54.159510140414675 27.773906345705946ZM60.421476255492585 36.94321387135574Q53.2649435525464 36.645025008732986 46.03386363394453 36.94321387135574Q44.021088811240915 37.09230830266712 43.946541595585224 38.806894262747974Q43.946541595585224 40.819669085451594 46.03386363394453 40.67057465414021Q52.74311304295657 40.819669085451594 59.67600409893569 40.67057465414021Q61.316042843360854 40.596027438484526 61.61423170598361 40.37238579151746Q61.98696778426206 39.99964971323901 62.21060943122913 38.73234704709229Q62.4342510781962 37.09230830266712 60.421476255492585 36.94321387135574ZM73.09450291695978 43.72701049602348Q75.40546660228615 42.60880226118813 77.12005256236701 45.96342696569416Q78.6109968754808 49.54169331716725 74.13816393613943 50.51080712069121Q71.5290113881903 51.25627927724811 68.32348111499566 52.896318021673274Q66.23615907663635 53.71633739388586 68.54712276196273 54.8345456287212Q78.83463852244788 59.60556743068532 88.5257765576875 62.88564491953566Q91.9549484778492 65.12206138920634 87.40756832285214 68.25304444674529Q84.2765852653132 70.63855534772735 80.84741334515148 68.9239693876465Q65.11795084180102 55.43092335396671 52.07218810205537 52.970865237328965Q50.58124378894158 51.85265700249362 51.77399923943261 49.914429395445694Q56.69411547270811 47.15618241618519 60.719665118115344 50.659901552002594Q62.50879829385189 51.77810978683793 64.74521476352257 50.21261825806846Q68.91985884024118 46.85799355356244 73.09450291695978 43.72701049602348Z" fill="#f2f0e8"/>
  <path d="M50.7385464756382 70.17918382237974Q49.43766567092668 63.26825454734977 56.267289895662174 64.24391515088341Q69.032182791894 64.0 82.04099083900924 64.0Q85.29319285078805 64.48783030176682 86.91929385667744 66.27654140824517Q88.1388696110945 67.41481211236774 87.81364940991662 69.52874342002397Q87.00059890697192 71.80528482826914 86.43146355491062 74.0818262365143Q86.26885345432169 94.08286860895399 87.08190395726639 115.14087663522176Q87.24451405785533 119.20612914994527 86.83798880638298 120.99484025642361Q84.88666759931569 126.03575337468078 81.30924538635901 122.62094126231302Q80.65880498400324 121.80789075936832 80.33358478282535 120.10048470318445Q80.2522797325309 111.15692917079272 80.41488983311983 102.213373638401Q80.4961948834143 99.7742221295669 78.54487367634701 99.53030697868348Q66.99955653453225 99.12378172721114 58.137306052434994 99.69291707927242Q56.185984845367706 99.85552717986137 55.210324241834066 102.29467868869547Q52.20203738093866 109.04299786313649 47.974174765626216 114.490436232866Q46.02285355855893 117.41741804346692 41.87629599354095 120.66962005524574Q36.672772774694856 125.30400792203054 32.77013036056029 121.56397560848491Q31.225334404965352 119.77526450200656 33.339265712621575 117.66133319435033Q36.59146772440039 115.62870693698858 39.843669736179194 113.27086047844895Q46.348073759736806 108.2299473601918 49.27505557033774 101.23771303486735Q52.20203738093866 94.73330901130974 52.28334243123314 87.90368478657425Q52.77117273299996 79.36665450565488 50.7385464756382 70.17918382237974ZM77.00007772075209 69.52874342002397Q65.86128583040966 69.12221816855163 60.251237360091224 70.09787877208527Q58.29991615302393 70.8296242247355 58.21861110272947 73.26877573356961V77.25272319799865Q58.21861110272947 79.20404440506593 60.16993230979675 79.44795955594934Q67.24347168541566 79.93578985771616 78.54487367634701 79.44795955594934Q80.57749993370876 79.2853494553604 80.4961948834143 76.8461979465263Q80.4961948834143 73.02486058268619 79.84575448105853 69.93526867149632Q79.43922922958619 69.69135352061292 77.00007772075209 69.52874342002397ZM78.13834842487466 85.22061812685672Q69.8452332948387 84.81409287538438 59.92601715891334 85.38322822744567Q58.05600100214052 85.46453327774014 57.97469595184606 88.14759993745766Q57.730780800962634 89.85500599364153 57.730780800962634 91.80632720070881Q57.5681707003737 93.7576484077761 60.007322209207814 93.83895345807056Q69.19479289248294 94.16417365924845 78.38226357575807 93.83895345807056Q80.4961948834143 93.7576484077761 80.4961948834143 91.80632720070881L80.57749993370876 87.49715953510189Q80.57749993370876 85.5458383280346 78.13834842487466 85.22061812685672Z" fill="#f2f0e8"/>
</svg>
